ISO-10303-21;
HEADER;
/* Generated by software containing ST-Developer
 * from STEP Tools, Inc. (www.steptools.com) 
 */

FILE_DESCRIPTION(
/* description */ (''),
/* implementation_level */ '2;1');

FILE_NAME(
/* name */ 'Cap.step',
/* time_stamp */ '2026-07-07T16:46:51+12:00',
/* author */ (''),
/* organization */ (''),
/* preprocessor_version */ 'ST-DEVELOPER v20.1',
/* originating_system */ 'Autodesk Translation Framework v15.8.0.0',
/* authorisation */ '');

FILE_SCHEMA (('AUTOMOTIVE_DESIGN { 1 0 10303 214 3 1 1 }'));
ENDSEC;

DATA;
#10=MECHANICAL_DESIGN_GEOMETRIC_PRESENTATION_REPRESENTATION('',(#13),#1378);
#11=SHAPE_REPRESENTATION_RELATIONSHIP('SRR','None',#1385,#12);
#12=ADVANCED_BREP_SHAPE_REPRESENTATION('',(#14),#1377);
#13=STYLED_ITEM('',(#1394),#14);
#14=MANIFOLD_SOLID_BREP('Cap',#866);
#15=FACE_BOUND('',#90,.T.);
#16=FACE_BOUND('',#91,.T.);
#17=FACE_BOUND('',#96,.T.);
#18=FACE_BOUND('',#99,.T.);
#19=FACE_OUTER_BOUND('',#64,.T.);
#20=FACE_OUTER_BOUND('',#65,.T.);
#21=FACE_OUTER_BOUND('',#66,.T.);
#22=FACE_OUTER_BOUND('',#67,.T.);
#23=FACE_OUTER_BOUND('',#68,.T.);
#24=FACE_OUTER_BOUND('',#69,.T.);
#25=FACE_OUTER_BOUND('',#70,.T.);
#26=FACE_OUTER_BOUND('',#71,.T.);
#27=FACE_OUTER_BOUND('',#72,.T.);
#28=FACE_OUTER_BOUND('',#73,.T.);
#29=FACE_OUTER_BOUND('',#74,.T.);
#30=FACE_OUTER_BOUND('',#75,.T.);
#31=FACE_OUTER_BOUND('',#76,.T.);
#32=FACE_OUTER_BOUND('',#77,.T.);
#33=FACE_OUTER_BOUND('',#78,.T.);
#34=FACE_OUTER_BOUND('',#79,.T.);
#35=FACE_OUTER_BOUND('',#80,.T.);
#36=FACE_OUTER_BOUND('',#81,.T.);
#37=FACE_OUTER_BOUND('',#82,.T.);
#38=FACE_OUTER_BOUND('',#83,.T.);
#39=FACE_OUTER_BOUND('',#84,.T.);
#40=FACE_OUTER_BOUND('',#85,.T.);
#41=FACE_OUTER_BOUND('',#86,.T.);
#42=FACE_OUTER_BOUND('',#87,.T.);
#43=FACE_OUTER_BOUND('',#88,.T.);
#44=FACE_OUTER_BOUND('',#89,.T.);
#45=FACE_OUTER_BOUND('',#92,.T.);
#46=FACE_OUTER_BOUND('',#93,.T.);
#47=FACE_OUTER_BOUND('',#94,.T.);
#48=FACE_OUTER_BOUND('',#95,.T.);
#49=FACE_OUTER_BOUND('',#97,.T.);
#50=FACE_OUTER_BOUND('',#98,.T.);
#51=FACE_OUTER_BOUND('',#100,.T.);
#52=FACE_OUTER_BOUND('',#101,.T.);
#53=FACE_OUTER_BOUND('',#102,.T.);
#54=FACE_OUTER_BOUND('',#103,.T.);
#55=FACE_OUTER_BOUND('',#104,.T.);
#56=FACE_OUTER_BOUND('',#105,.T.);
#57=FACE_OUTER_BOUND('',#106,.T.);
#58=FACE_OUTER_BOUND('',#107,.T.);
#59=FACE_OUTER_BOUND('',#108,.T.);
#60=FACE_OUTER_BOUND('',#109,.T.);
#61=FACE_OUTER_BOUND('',#110,.T.);
#62=FACE_OUTER_BOUND('',#111,.T.);
#63=FACE_OUTER_BOUND('',#112,.T.);
#64=EDGE_LOOP('',(#542,#543,#544,#545));
#65=EDGE_LOOP('',(#546,#547,#548,#549));
#66=EDGE_LOOP('',(#550,#551,#552,#553));
#67=EDGE_LOOP('',(#554,#555,#556,#557));
#68=EDGE_LOOP('',(#558,#559,#560,#561));
#69=EDGE_LOOP('',(#562,#563,#564,#565));
#70=EDGE_LOOP('',(#566,#567,#568,#569));
#71=EDGE_LOOP('',(#570,#571,#572,#573));
#72=EDGE_LOOP('',(#574,#575,#576,#577));
#73=EDGE_LOOP('',(#578,#579,#580,#581));
#74=EDGE_LOOP('',(#582,#583,#584,#585));
#75=EDGE_LOOP('',(#586,#587,#588,#589));
#76=EDGE_LOOP('',(#590,#591,#592,#593));
#77=EDGE_LOOP('',(#594,#595,#596,#597));
#78=EDGE_LOOP('',(#598,#599,#600,#601));
#79=EDGE_LOOP('',(#602,#603,#604,#605));
#80=EDGE_LOOP('',(#606,#607,#608,#609));
#81=EDGE_LOOP('',(#610,#611,#612,#613));
#82=EDGE_LOOP('',(#614,#615,#616,#617));
#83=EDGE_LOOP('',(#618,#619,#620,#621));
#84=EDGE_LOOP('',(#622,#623,#624,#625));
#85=EDGE_LOOP('',(#626,#627,#628,#629));
#86=EDGE_LOOP('',(#630,#631,#632,#633));
#87=EDGE_LOOP('',(#634,#635,#636,#637,#638,#639,#640,#641));
#88=EDGE_LOOP('',(#642,#643,#644,#645,#646,#647,#648,#649));
#89=EDGE_LOOP('',(#650,#651,#652,#653,#654,#655,#656,#657));
#90=EDGE_LOOP('',(#658,#659,#660,#661));
#91=EDGE_LOOP('',(#662,#663,#664,#665));
#92=EDGE_LOOP('',(#666,#667,#668,#669));
#93=EDGE_LOOP('',(#670,#671,#672,#673));
#94=EDGE_LOOP('',(#674,#675,#676,#677));
#95=EDGE_LOOP('',(#678,#679,#680,#681));
#96=EDGE_LOOP('',(#682,#683,#684,#685));
#97=EDGE_LOOP('',(#686,#687,#688,#689));
#98=EDGE_LOOP('',(#690,#691,#692,#693));
#99=EDGE_LOOP('',(#694,#695,#696,#697));
#100=EDGE_LOOP('',(#698,#699,#700,#701,#702,#703));
#101=EDGE_LOOP('',(#704,#705,#706,#707,#708,#709,#710,#711,#712,#713,#714,
#715));
#102=EDGE_LOOP('',(#716,#717,#718,#719,#720,#721));
#103=EDGE_LOOP('',(#722,#723,#724,#725,#726));
#104=EDGE_LOOP('',(#727,#728,#729,#730));
#105=EDGE_LOOP('',(#731,#732,#733,#734,#735));
#106=EDGE_LOOP('',(#736,#737,#738,#739,#740,#741,#742,#743));
#107=EDGE_LOOP('',(#744,#745,#746,#747));
#108=EDGE_LOOP('',(#748,#749,#750,#751));
#109=EDGE_LOOP('',(#752,#753,#754,#755,#756,#757,#758,#759));
#110=EDGE_LOOP('',(#760,#761,#762,#763));
#111=EDGE_LOOP('',(#764,#765,#766,#767));
#112=EDGE_LOOP('',(#768,#769,#770,#771,#772,#773,#774,#775));
#113=LINE('',#1138,#230);
#114=LINE('',#1140,#231);
#115=LINE('',#1142,#232);
#116=LINE('',#1143,#233);
#117=LINE('',#1146,#234);
#118=LINE('',#1148,#235);
#119=LINE('',#1149,#236);
#120=LINE('',#1152,#237);
#121=LINE('',#1153,#238);
#122=LINE('',#1157,#239);
#123=LINE('',#1159,#240);
#124=LINE('',#1161,#241);
#125=LINE('',#1162,#242);
#126=LINE('',#1165,#243);
#127=LINE('',#1167,#244);
#128=LINE('',#1168,#245);
#129=LINE('',#1171,#246);
#130=LINE('',#1172,#247);
#131=LINE('',#1176,#248);
#132=LINE('',#1178,#249);
#133=LINE('',#1180,#250);
#134=LINE('',#1181,#251);
#135=LINE('',#1184,#252);
#136=LINE('',#1186,#253);
#137=LINE('',#1187,#254);
#138=LINE('',#1190,#255);
#139=LINE('',#1191,#256);
#140=LINE('',#1195,#257);
#141=LINE('',#1197,#258);
#142=LINE('',#1199,#259);
#143=LINE('',#1200,#260);
#144=LINE('',#1203,#261);
#145=LINE('',#1205,#262);
#146=LINE('',#1206,#263);
#147=LINE('',#1209,#264);
#148=LINE('',#1210,#265);
#149=LINE('',#1213,#266);
#150=LINE('',#1214,#267);
#151=LINE('',#1216,#268);
#152=LINE('',#1219,#269);
#153=LINE('',#1220,#270);
#154=LINE('',#1222,#271);
#155=LINE('',#1225,#272);
#156=LINE('',#1226,#273);
#157=LINE('',#1228,#274);
#158=LINE('',#1231,#275);
#159=LINE('',#1232,#276);
#160=LINE('',#1234,#277);
#161=LINE('',#1238,#278);
#162=LINE('',#1240,#279);
#163=LINE('',#1242,#280);
#164=LINE('',#1243,#281);
#165=LINE('',#1247,#282);
#166=LINE('',#1249,#283);
#167=LINE('',#1251,#284);
#168=LINE('',#1252,#285);
#169=LINE('',#1254,#286);
#170=LINE('',#1255,#287);
#171=LINE('',#1258,#288);
#172=LINE('',#1260,#289);
#173=LINE('',#1262,#290);
#174=LINE('',#1264,#291);
#175=LINE('',#1266,#292);
#176=LINE('',#1268,#293);
#177=LINE('',#1269,#294);
#178=LINE('',#1272,#295);
#179=LINE('',#1274,#296);
#180=LINE('',#1276,#297);
#181=LINE('',#1278,#298);
#182=LINE('',#1280,#299);
#183=LINE('',#1282,#300);
#184=LINE('',#1283,#301);
#185=LINE('',#1286,#302);
#186=LINE('',#1288,#303);
#187=LINE('',#1289,#304);
#188=LINE('',#1293,#305);
#189=LINE('',#1295,#306);
#190=LINE('',#1297,#307);
#191=LINE('',#1298,#308);
#192=LINE('',#1301,#309);
#193=LINE('',#1303,#310);
#194=LINE('',#1304,#311);
#195=LINE('',#1307,#312);
#196=LINE('',#1308,#313);
#197=LINE('',#1311,#314);
#198=LINE('',#1312,#315);
#199=LINE('',#1315,#316);
#200=LINE('',#1316,#317);
#201=LINE('',#1319,#318);
#202=LINE('',#1320,#319);
#203=LINE('',#1323,#320);
#204=LINE('',#1325,#321);
#205=LINE('',#1327,#322);
#206=LINE('',#1328,#323);
#207=LINE('',#1331,#324);
#208=LINE('',#1333,#325);
#209=LINE('',#1335,#326);
#210=LINE('',#1337,#327);
#211=LINE('',#1339,#328);
#212=LINE('',#1340,#329);
#213=LINE('',#1344,#330);
#214=LINE('',#1345,#331);
#215=LINE('',#1346,#332);
#216=LINE('',#1348,#333);
#217=LINE('',#1349,#334);
#218=LINE('',#1351,#335);
#219=LINE('',#1353,#336);
#220=LINE('',#1355,#337);
#221=LINE('',#1358,#338);
#222=LINE('',#1359,#339);
#223=LINE('',#1362,#340);
#224=LINE('',#1363,#341);
#225=LINE('',#1366,#342);
#226=LINE('',#1367,#343);
#227=LINE('',#1370,#344);
#228=LINE('',#1371,#345);
#229=LINE('',#1373,#346);
#230=VECTOR('',#929,10.);
#231=VECTOR('',#930,10.);
#232=VECTOR('',#931,10.);
#233=VECTOR('',#932,10.);
#234=VECTOR('',#935,10.);
#235=VECTOR('',#936,10.);
#236=VECTOR('',#937,10.);
#237=VECTOR('',#940,10.);
#238=VECTOR('',#941,10.);
#239=VECTOR('',#944,10.);
#240=VECTOR('',#945,10.);
#241=VECTOR('',#946,10.);
#242=VECTOR('',#947,10.);
#243=VECTOR('',#950,10.);
#244=VECTOR('',#951,10.);
#245=VECTOR('',#952,10.);
#246=VECTOR('',#955,10.);
#247=VECTOR('',#956,10.);
#248=VECTOR('',#959,10.);
#249=VECTOR('',#960,10.);
#250=VECTOR('',#961,10.);
#251=VECTOR('',#962,10.);
#252=VECTOR('',#965,10.);
#253=VECTOR('',#966,10.);
#254=VECTOR('',#967,10.);
#255=VECTOR('',#970,10.);
#256=VECTOR('',#971,10.);
#257=VECTOR('',#974,10.);
#258=VECTOR('',#975,10.);
#259=VECTOR('',#976,10.);
#260=VECTOR('',#977,10.);
#261=VECTOR('',#980,10.);
#262=VECTOR('',#981,10.);
#263=VECTOR('',#982,10.);
#264=VECTOR('',#985,10.);
#265=VECTOR('',#986,10.);
#266=VECTOR('',#989,10.);
#267=VECTOR('',#990,10.);
#268=VECTOR('',#993,10.);
#269=VECTOR('',#996,10.);
#270=VECTOR('',#997,10.);
#271=VECTOR('',#1000,10.);
#272=VECTOR('',#1003,10.);
#273=VECTOR('',#1004,10.);
#274=VECTOR('',#1007,10.);
#275=VECTOR('',#1010,10.);
#276=VECTOR('',#1011,10.);
#277=VECTOR('',#1014,10.);
#278=VECTOR('',#1017,10.);
#279=VECTOR('',#1018,10.);
#280=VECTOR('',#1019,10.);
#281=VECTOR('',#1020,10.);
#282=VECTOR('',#1023,10.);
#283=VECTOR('',#1024,10.);
#284=VECTOR('',#1025,10.);
#285=VECTOR('',#1026,10.);
#286=VECTOR('',#1029,10.);
#287=VECTOR('',#1030,10.);
#288=VECTOR('',#1033,10.);
#289=VECTOR('',#1034,10.);
#290=VECTOR('',#1035,10.);
#291=VECTOR('',#1036,10.);
#292=VECTOR('',#1037,10.);
#293=VECTOR('',#1038,10.);
#294=VECTOR('',#1039,10.);
#295=VECTOR('',#1042,10.);
#296=VECTOR('',#1043,10.);
#297=VECTOR('',#1044,10.);
#298=VECTOR('',#1045,10.);
#299=VECTOR('',#1046,10.);
#300=VECTOR('',#1047,10.);
#301=VECTOR('',#1048,10.);
#302=VECTOR('',#1051,10.);
#303=VECTOR('',#1052,10.);
#304=VECTOR('',#1053,10.);
#305=VECTOR('',#1056,10.);
#306=VECTOR('',#1057,10.);
#307=VECTOR('',#1058,10.);
#308=VECTOR('',#1059,10.);
#309=VECTOR('',#1062,10.);
#310=VECTOR('',#1063,10.);
#311=VECTOR('',#1064,10.);
#312=VECTOR('',#1067,10.);
#313=VECTOR('',#1068,10.);
#314=VECTOR('',#1071,10.);
#315=VECTOR('',#1072,10.);
#316=VECTOR('',#1075,10.);
#317=VECTOR('',#1076,10.);
#318=VECTOR('',#1079,10.);
#319=VECTOR('',#1080,10.);
#320=VECTOR('',#1083,10.);
#321=VECTOR('',#1084,10.);
#322=VECTOR('',#1085,10.);
#323=VECTOR('',#1086,10.);
#324=VECTOR('',#1089,10.);
#325=VECTOR('',#1090,10.);
#326=VECTOR('',#1091,10.);
#327=VECTOR('',#1092,10.);
#328=VECTOR('',#1093,10.);
#329=VECTOR('',#1094,10.);
#330=VECTOR('',#1097,10.);
#331=VECTOR('',#1098,10.);
#332=VECTOR('',#1099,10.);
#333=VECTOR('',#1102,10.);
#334=VECTOR('',#1103,10.);
#335=VECTOR('',#1106,10.);
#336=VECTOR('',#1109,10.);
#337=VECTOR('',#1112,10.);
#338=VECTOR('',#1115,10.);
#339=VECTOR('',#1116,10.);
#340=VECTOR('',#1119,10.);
#341=VECTOR('',#1120,10.);
#342=VECTOR('',#1123,10.);
#343=VECTOR('',#1124,10.);
#344=VECTOR('',#1127,10.);
#345=VECTOR('',#1128,10.);
#346=VECTOR('',#1131,10.);
#347=VERTEX_POINT('',#1136);
#348=VERTEX_POINT('',#1137);
#349=VERTEX_POINT('',#1139);
#350=VERTEX_POINT('',#1141);
#351=VERTEX_POINT('',#1145);
#352=VERTEX_POINT('',#1147);
#353=VERTEX_POINT('',#1151);
#354=VERTEX_POINT('',#1155);
#355=VERTEX_POINT('',#1156);
#356=VERTEX_POINT('',#1158);
#357=VERTEX_POINT('',#1160);
#358=VERTEX_POINT('',#1164);
#359=VERTEX_POINT('',#1166);
#360=VERTEX_POINT('',#1170);
#361=VERTEX_POINT('',#1174);
#362=VERTEX_POINT('',#1175);
#363=VERTEX_POINT('',#1177);
#364=VERTEX_POINT('',#1179);
#365=VERTEX_POINT('',#1183);
#366=VERTEX_POINT('',#1185);
#367=VERTEX_POINT('',#1189);
#368=VERTEX_POINT('',#1193);
#369=VERTEX_POINT('',#1194);
#370=VERTEX_POINT('',#1196);
#371=VERTEX_POINT('',#1198);
#372=VERTEX_POINT('',#1202);
#373=VERTEX_POINT('',#1204);
#374=VERTEX_POINT('',#1208);
#375=VERTEX_POINT('',#1212);
#376=VERTEX_POINT('',#1218);
#377=VERTEX_POINT('',#1224);
#378=VERTEX_POINT('',#1230);
#379=VERTEX_POINT('',#1236);
#380=VERTEX_POINT('',#1237);
#381=VERTEX_POINT('',#1239);
#382=VERTEX_POINT('',#1241);
#383=VERTEX_POINT('',#1245);
#384=VERTEX_POINT('',#1246);
#385=VERTEX_POINT('',#1248);
#386=VERTEX_POINT('',#1250);
#387=VERTEX_POINT('',#1257);
#388=VERTEX_POINT('',#1259);
#389=VERTEX_POINT('',#1261);
#390=VERTEX_POINT('',#1263);
#391=VERTEX_POINT('',#1265);
#392=VERTEX_POINT('',#1267);
#393=VERTEX_POINT('',#1271);
#394=VERTEX_POINT('',#1273);
#395=VERTEX_POINT('',#1275);
#396=VERTEX_POINT('',#1277);
#397=VERTEX_POINT('',#1279);
#398=VERTEX_POINT('',#1281);
#399=VERTEX_POINT('',#1285);
#400=VERTEX_POINT('',#1287);
#401=VERTEX_POINT('',#1291);
#402=VERTEX_POINT('',#1292);
#403=VERTEX_POINT('',#1294);
#404=VERTEX_POINT('',#1296);
#405=VERTEX_POINT('',#1300);
#406=VERTEX_POINT('',#1302);
#407=VERTEX_POINT('',#1306);
#408=VERTEX_POINT('',#1310);
#409=VERTEX_POINT('',#1314);
#410=VERTEX_POINT('',#1318);
#411=VERTEX_POINT('',#1322);
#412=VERTEX_POINT('',#1324);
#413=VERTEX_POINT('',#1326);
#414=VERTEX_POINT('',#1330);
#415=VERTEX_POINT('',#1332);
#416=VERTEX_POINT('',#1334);
#417=VERTEX_POINT('',#1336);
#418=VERTEX_POINT('',#1338);
#419=VERTEX_POINT('',#1342);
#420=VERTEX_POINT('',#1343);
#421=VERTEX_POINT('',#1357);
#422=VERTEX_POINT('',#1361);
#423=VERTEX_POINT('',#1365);
#424=VERTEX_POINT('',#1369);
#425=EDGE_CURVE('',#347,#348,#113,.T.);
#426=EDGE_CURVE('',#348,#349,#114,.T.);
#427=EDGE_CURVE('',#349,#350,#115,.T.);
#428=EDGE_CURVE('',#350,#347,#116,.T.);
#429=EDGE_CURVE('',#347,#351,#117,.T.);
#430=EDGE_CURVE('',#352,#351,#118,.F.);
#431=EDGE_CURVE('',#352,#348,#119,.T.);
#432=EDGE_CURVE('',#350,#353,#120,.T.);
#433=EDGE_CURVE('',#351,#353,#121,.F.);
#434=EDGE_CURVE('',#354,#355,#122,.T.);
#435=EDGE_CURVE('',#355,#356,#123,.T.);
#436=EDGE_CURVE('',#356,#357,#124,.T.);
#437=EDGE_CURVE('',#357,#354,#125,.T.);
#438=EDGE_CURVE('',#358,#356,#126,.T.);
#439=EDGE_CURVE('',#359,#358,#127,.F.);
#440=EDGE_CURVE('',#357,#359,#128,.T.);
#441=EDGE_CURVE('',#360,#355,#129,.T.);
#442=EDGE_CURVE('',#358,#360,#130,.F.);
#443=EDGE_CURVE('',#361,#362,#131,.T.);
#444=EDGE_CURVE('',#362,#363,#132,.T.);
#445=EDGE_CURVE('',#363,#364,#133,.T.);
#446=EDGE_CURVE('',#364,#361,#134,.T.);
#447=EDGE_CURVE('',#365,#363,#135,.T.);
#448=EDGE_CURVE('',#366,#365,#136,.F.);
#449=EDGE_CURVE('',#364,#366,#137,.T.);
#450=EDGE_CURVE('',#367,#362,#138,.T.);
#451=EDGE_CURVE('',#365,#367,#139,.F.);
#452=EDGE_CURVE('',#368,#369,#140,.T.);
#453=EDGE_CURVE('',#369,#370,#141,.T.);
#454=EDGE_CURVE('',#370,#371,#142,.T.);
#455=EDGE_CURVE('',#371,#368,#143,.T.);
#456=EDGE_CURVE('',#372,#370,#144,.T.);
#457=EDGE_CURVE('',#373,#372,#145,.F.);
#458=EDGE_CURVE('',#371,#373,#146,.T.);
#459=EDGE_CURVE('',#374,#369,#147,.T.);
#460=EDGE_CURVE('',#372,#374,#148,.F.);
#461=EDGE_CURVE('',#375,#373,#149,.F.);
#462=EDGE_CURVE('',#368,#375,#150,.T.);
#463=EDGE_CURVE('',#374,#375,#151,.F.);
#464=EDGE_CURVE('',#376,#352,#152,.F.);
#465=EDGE_CURVE('',#376,#349,#153,.T.);
#466=EDGE_CURVE('',#353,#376,#154,.F.);
#467=EDGE_CURVE('',#377,#366,#155,.F.);
#468=EDGE_CURVE('',#361,#377,#156,.T.);
#469=EDGE_CURVE('',#367,#377,#157,.F.);
#470=EDGE_CURVE('',#378,#359,#158,.F.);
#471=EDGE_CURVE('',#354,#378,#159,.T.);
#472=EDGE_CURVE('',#360,#378,#160,.F.);
#473=EDGE_CURVE('',#379,#380,#161,.T.);
#474=EDGE_CURVE('',#381,#379,#162,.F.);
#475=EDGE_CURVE('',#381,#382,#163,.T.);
#476=EDGE_CURVE('',#380,#382,#164,.T.);
#477=EDGE_CURVE('',#383,#384,#165,.T.);
#478=EDGE_CURVE('',#385,#383,#166,.T.);
#479=EDGE_CURVE('',#385,#386,#167,.T.);
#480=EDGE_CURVE('',#384,#386,#168,.F.);
#481=EDGE_CURVE('',#382,#385,#169,.T.);
#482=EDGE_CURVE('',#386,#381,#170,.F.);
#483=EDGE_CURVE('',#380,#387,#171,.F.);
#484=EDGE_CURVE('',#387,#388,#172,.F.);
#485=EDGE_CURVE('',#388,#389,#173,.F.);
#486=EDGE_CURVE('',#389,#390,#174,.F.);
#487=EDGE_CURVE('',#390,#391,#175,.T.);
#488=EDGE_CURVE('',#391,#392,#176,.T.);
#489=EDGE_CURVE('',#392,#379,#177,.T.);
#490=EDGE_CURVE('',#384,#393,#178,.T.);
#491=EDGE_CURVE('',#393,#394,#179,.T.);
#492=EDGE_CURVE('',#394,#395,#180,.T.);
#493=EDGE_CURVE('',#395,#396,#181,.F.);
#494=EDGE_CURVE('',#396,#397,#182,.F.);
#495=EDGE_CURVE('',#397,#398,#183,.F.);
#496=EDGE_CURVE('',#398,#383,#184,.F.);
#497=EDGE_CURVE('',#399,#392,#185,.T.);
#498=EDGE_CURVE('',#400,#399,#186,.F.);
#499=EDGE_CURVE('',#400,#393,#187,.F.);
#500=EDGE_CURVE('',#401,#402,#188,.F.);
#501=EDGE_CURVE('',#402,#403,#189,.T.);
#502=EDGE_CURVE('',#403,#404,#190,.F.);
#503=EDGE_CURVE('',#404,#401,#191,.T.);
#504=EDGE_CURVE('',#402,#405,#192,.T.);
#505=EDGE_CURVE('',#405,#406,#193,.T.);
#506=EDGE_CURVE('',#406,#403,#194,.T.);
#507=EDGE_CURVE('',#407,#400,#195,.F.);
#508=EDGE_CURVE('',#407,#394,#196,.F.);
#509=EDGE_CURVE('',#408,#407,#197,.F.);
#510=EDGE_CURVE('',#408,#395,#198,.T.);
#511=EDGE_CURVE('',#399,#409,#199,.F.);
#512=EDGE_CURVE('',#409,#391,#200,.T.);
#513=EDGE_CURVE('',#409,#410,#201,.F.);
#514=EDGE_CURVE('',#410,#390,#202,.F.);
#515=EDGE_CURVE('',#411,#408,#203,.T.);
#516=EDGE_CURVE('',#412,#411,#204,.T.);
#517=EDGE_CURVE('',#412,#413,#205,.T.);
#518=EDGE_CURVE('',#413,#396,#206,.T.);
#519=EDGE_CURVE('',#410,#414,#207,.T.);
#520=EDGE_CURVE('',#414,#415,#208,.T.);
#521=EDGE_CURVE('',#415,#416,#209,.T.);
#522=EDGE_CURVE('',#416,#417,#210,.T.);
#523=EDGE_CURVE('',#417,#418,#211,.T.);
#524=EDGE_CURVE('',#418,#411,#212,.T.);
#525=EDGE_CURVE('',#419,#420,#213,.T.);
#526=EDGE_CURVE('',#419,#414,#214,.T.);
#527=EDGE_CURVE('',#420,#389,#215,.T.);
#528=EDGE_CURVE('',#404,#415,#216,.T.);
#529=EDGE_CURVE('',#406,#416,#217,.T.);
#530=EDGE_CURVE('',#405,#417,#218,.T.);
#531=EDGE_CURVE('',#418,#401,#219,.T.);
#532=EDGE_CURVE('',#419,#412,#220,.T.);
#533=EDGE_CURVE('',#421,#388,#221,.T.);
#534=EDGE_CURVE('',#420,#421,#222,.T.);
#535=EDGE_CURVE('',#422,#387,#223,.T.);
#536=EDGE_CURVE('',#421,#422,#224,.T.);
#537=EDGE_CURVE('',#423,#398,#225,.T.);
#538=EDGE_CURVE('',#422,#423,#226,.T.);
#539=EDGE_CURVE('',#424,#397,#227,.T.);
#540=EDGE_CURVE('',#423,#424,#228,.T.);
#541=EDGE_CURVE('',#424,#413,#229,.T.);
#542=ORIENTED_EDGE('',*,*,#425,.T.);
#543=ORIENTED_EDGE('',*,*,#426,.T.);
#544=ORIENTED_EDGE('',*,*,#427,.T.);
#545=ORIENTED_EDGE('',*,*,#428,.T.);
#546=ORIENTED_EDGE('',*,*,#425,.F.);
#547=ORIENTED_EDGE('',*,*,#429,.T.);
#548=ORIENTED_EDGE('',*,*,#430,.F.);
#549=ORIENTED_EDGE('',*,*,#431,.T.);
#550=ORIENTED_EDGE('',*,*,#428,.F.);
#551=ORIENTED_EDGE('',*,*,#432,.T.);
#552=ORIENTED_EDGE('',*,*,#433,.F.);
#553=ORIENTED_EDGE('',*,*,#429,.F.);
#554=ORIENTED_EDGE('',*,*,#434,.T.);
#555=ORIENTED_EDGE('',*,*,#435,.T.);
#556=ORIENTED_EDGE('',*,*,#436,.T.);
#557=ORIENTED_EDGE('',*,*,#437,.T.);
#558=ORIENTED_EDGE('',*,*,#436,.F.);
#559=ORIENTED_EDGE('',*,*,#438,.F.);
#560=ORIENTED_EDGE('',*,*,#439,.F.);
#561=ORIENTED_EDGE('',*,*,#440,.F.);
#562=ORIENTED_EDGE('',*,*,#435,.F.);
#563=ORIENTED_EDGE('',*,*,#441,.F.);
#564=ORIENTED_EDGE('',*,*,#442,.F.);
#565=ORIENTED_EDGE('',*,*,#438,.T.);
#566=ORIENTED_EDGE('',*,*,#443,.T.);
#567=ORIENTED_EDGE('',*,*,#444,.T.);
#568=ORIENTED_EDGE('',*,*,#445,.T.);
#569=ORIENTED_EDGE('',*,*,#446,.T.);
#570=ORIENTED_EDGE('',*,*,#445,.F.);
#571=ORIENTED_EDGE('',*,*,#447,.F.);
#572=ORIENTED_EDGE('',*,*,#448,.F.);
#573=ORIENTED_EDGE('',*,*,#449,.F.);
#574=ORIENTED_EDGE('',*,*,#444,.F.);
#575=ORIENTED_EDGE('',*,*,#450,.F.);
#576=ORIENTED_EDGE('',*,*,#451,.F.);
#577=ORIENTED_EDGE('',*,*,#447,.T.);
#578=ORIENTED_EDGE('',*,*,#452,.T.);
#579=ORIENTED_EDGE('',*,*,#453,.T.);
#580=ORIENTED_EDGE('',*,*,#454,.T.);
#581=ORIENTED_EDGE('',*,*,#455,.T.);
#582=ORIENTED_EDGE('',*,*,#454,.F.);
#583=ORIENTED_EDGE('',*,*,#456,.F.);
#584=ORIENTED_EDGE('',*,*,#457,.F.);
#585=ORIENTED_EDGE('',*,*,#458,.F.);
#586=ORIENTED_EDGE('',*,*,#453,.F.);
#587=ORIENTED_EDGE('',*,*,#459,.F.);
#588=ORIENTED_EDGE('',*,*,#460,.F.);
#589=ORIENTED_EDGE('',*,*,#456,.T.);
#590=ORIENTED_EDGE('',*,*,#455,.F.);
#591=ORIENTED_EDGE('',*,*,#458,.T.);
#592=ORIENTED_EDGE('',*,*,#461,.F.);
#593=ORIENTED_EDGE('',*,*,#462,.F.);
#594=ORIENTED_EDGE('',*,*,#452,.F.);
#595=ORIENTED_EDGE('',*,*,#462,.T.);
#596=ORIENTED_EDGE('',*,*,#463,.F.);
#597=ORIENTED_EDGE('',*,*,#459,.T.);
#598=ORIENTED_EDGE('',*,*,#426,.F.);
#599=ORIENTED_EDGE('',*,*,#431,.F.);
#600=ORIENTED_EDGE('',*,*,#464,.F.);
#601=ORIENTED_EDGE('',*,*,#465,.T.);
#602=ORIENTED_EDGE('',*,*,#427,.F.);
#603=ORIENTED_EDGE('',*,*,#465,.F.);
#604=ORIENTED_EDGE('',*,*,#466,.F.);
#605=ORIENTED_EDGE('',*,*,#432,.F.);
#606=ORIENTED_EDGE('',*,*,#446,.F.);
#607=ORIENTED_EDGE('',*,*,#449,.T.);
#608=ORIENTED_EDGE('',*,*,#467,.F.);
#609=ORIENTED_EDGE('',*,*,#468,.F.);
#610=ORIENTED_EDGE('',*,*,#443,.F.);
#611=ORIENTED_EDGE('',*,*,#468,.T.);
#612=ORIENTED_EDGE('',*,*,#469,.F.);
#613=ORIENTED_EDGE('',*,*,#450,.T.);
#614=ORIENTED_EDGE('',*,*,#437,.F.);
#615=ORIENTED_EDGE('',*,*,#440,.T.);
#616=ORIENTED_EDGE('',*,*,#470,.F.);
#617=ORIENTED_EDGE('',*,*,#471,.F.);
#618=ORIENTED_EDGE('',*,*,#434,.F.);
#619=ORIENTED_EDGE('',*,*,#471,.T.);
#620=ORIENTED_EDGE('',*,*,#472,.F.);
#621=ORIENTED_EDGE('',*,*,#441,.T.);
#622=ORIENTED_EDGE('',*,*,#473,.F.);
#623=ORIENTED_EDGE('',*,*,#474,.F.);
#624=ORIENTED_EDGE('',*,*,#475,.T.);
#625=ORIENTED_EDGE('',*,*,#476,.F.);
#626=ORIENTED_EDGE('',*,*,#477,.F.);
#627=ORIENTED_EDGE('',*,*,#478,.F.);
#628=ORIENTED_EDGE('',*,*,#479,.T.);
#629=ORIENTED_EDGE('',*,*,#480,.F.);
#630=ORIENTED_EDGE('',*,*,#479,.F.);
#631=ORIENTED_EDGE('',*,*,#481,.F.);
#632=ORIENTED_EDGE('',*,*,#475,.F.);
#633=ORIENTED_EDGE('',*,*,#482,.F.);
#634=ORIENTED_EDGE('',*,*,#473,.T.);
#635=ORIENTED_EDGE('',*,*,#483,.T.);
#636=ORIENTED_EDGE('',*,*,#484,.T.);
#637=ORIENTED_EDGE('',*,*,#485,.T.);
#638=ORIENTED_EDGE('',*,*,#486,.T.);
#639=ORIENTED_EDGE('',*,*,#487,.T.);
#640=ORIENTED_EDGE('',*,*,#488,.T.);
#641=ORIENTED_EDGE('',*,*,#489,.T.);
#642=ORIENTED_EDGE('',*,*,#477,.T.);
#643=ORIENTED_EDGE('',*,*,#490,.T.);
#644=ORIENTED_EDGE('',*,*,#491,.T.);
#645=ORIENTED_EDGE('',*,*,#492,.T.);
#646=ORIENTED_EDGE('',*,*,#493,.T.);
#647=ORIENTED_EDGE('',*,*,#494,.T.);
#648=ORIENTED_EDGE('',*,*,#495,.T.);
#649=ORIENTED_EDGE('',*,*,#496,.T.);
#650=ORIENTED_EDGE('',*,*,#480,.T.);
#651=ORIENTED_EDGE('',*,*,#482,.T.);
#652=ORIENTED_EDGE('',*,*,#474,.T.);
#653=ORIENTED_EDGE('',*,*,#489,.F.);
#654=ORIENTED_EDGE('',*,*,#497,.F.);
#655=ORIENTED_EDGE('',*,*,#498,.F.);
#656=ORIENTED_EDGE('',*,*,#499,.T.);
#657=ORIENTED_EDGE('',*,*,#490,.F.);
#658=ORIENTED_EDGE('',*,*,#433,.T.);
#659=ORIENTED_EDGE('',*,*,#466,.T.);
#660=ORIENTED_EDGE('',*,*,#464,.T.);
#661=ORIENTED_EDGE('',*,*,#430,.T.);
#662=ORIENTED_EDGE('',*,*,#442,.T.);
#663=ORIENTED_EDGE('',*,*,#472,.T.);
#664=ORIENTED_EDGE('',*,*,#470,.T.);
#665=ORIENTED_EDGE('',*,*,#439,.T.);
#666=ORIENTED_EDGE('',*,*,#500,.T.);
#667=ORIENTED_EDGE('',*,*,#501,.T.);
#668=ORIENTED_EDGE('',*,*,#502,.T.);
#669=ORIENTED_EDGE('',*,*,#503,.T.);
#670=ORIENTED_EDGE('',*,*,#501,.F.);
#671=ORIENTED_EDGE('',*,*,#504,.T.);
#672=ORIENTED_EDGE('',*,*,#505,.T.);
#673=ORIENTED_EDGE('',*,*,#506,.T.);
#674=ORIENTED_EDGE('',*,*,#507,.F.);
#675=ORIENTED_EDGE('',*,*,#508,.T.);
#676=ORIENTED_EDGE('',*,*,#491,.F.);
#677=ORIENTED_EDGE('',*,*,#499,.F.);
#678=ORIENTED_EDGE('',*,*,#509,.F.);
#679=ORIENTED_EDGE('',*,*,#510,.T.);
#680=ORIENTED_EDGE('',*,*,#492,.F.);
#681=ORIENTED_EDGE('',*,*,#508,.F.);
#682=ORIENTED_EDGE('',*,*,#460,.T.);
#683=ORIENTED_EDGE('',*,*,#463,.T.);
#684=ORIENTED_EDGE('',*,*,#461,.T.);
#685=ORIENTED_EDGE('',*,*,#457,.T.);
#686=ORIENTED_EDGE('',*,*,#511,.F.);
#687=ORIENTED_EDGE('',*,*,#497,.T.);
#688=ORIENTED_EDGE('',*,*,#488,.F.);
#689=ORIENTED_EDGE('',*,*,#512,.F.);
#690=ORIENTED_EDGE('',*,*,#513,.F.);
#691=ORIENTED_EDGE('',*,*,#512,.T.);
#692=ORIENTED_EDGE('',*,*,#487,.F.);
#693=ORIENTED_EDGE('',*,*,#514,.F.);
#694=ORIENTED_EDGE('',*,*,#451,.T.);
#695=ORIENTED_EDGE('',*,*,#469,.T.);
#696=ORIENTED_EDGE('',*,*,#467,.T.);
#697=ORIENTED_EDGE('',*,*,#448,.T.);
#698=ORIENTED_EDGE('',*,*,#515,.F.);
#699=ORIENTED_EDGE('',*,*,#516,.F.);
#700=ORIENTED_EDGE('',*,*,#517,.T.);
#701=ORIENTED_EDGE('',*,*,#518,.T.);
#702=ORIENTED_EDGE('',*,*,#493,.F.);
#703=ORIENTED_EDGE('',*,*,#510,.F.);
#704=ORIENTED_EDGE('',*,*,#509,.T.);
#705=ORIENTED_EDGE('',*,*,#507,.T.);
#706=ORIENTED_EDGE('',*,*,#498,.T.);
#707=ORIENTED_EDGE('',*,*,#511,.T.);
#708=ORIENTED_EDGE('',*,*,#513,.T.);
#709=ORIENTED_EDGE('',*,*,#519,.T.);
#710=ORIENTED_EDGE('',*,*,#520,.T.);
#711=ORIENTED_EDGE('',*,*,#521,.T.);
#712=ORIENTED_EDGE('',*,*,#522,.T.);
#713=ORIENTED_EDGE('',*,*,#523,.T.);
#714=ORIENTED_EDGE('',*,*,#524,.T.);
#715=ORIENTED_EDGE('',*,*,#515,.T.);
#716=ORIENTED_EDGE('',*,*,#525,.F.);
#717=ORIENTED_EDGE('',*,*,#526,.T.);
#718=ORIENTED_EDGE('',*,*,#519,.F.);
#719=ORIENTED_EDGE('',*,*,#514,.T.);
#720=ORIENTED_EDGE('',*,*,#486,.F.);
#721=ORIENTED_EDGE('',*,*,#527,.F.);
#722=ORIENTED_EDGE('',*,*,#521,.F.);
#723=ORIENTED_EDGE('',*,*,#528,.F.);
#724=ORIENTED_EDGE('',*,*,#502,.F.);
#725=ORIENTED_EDGE('',*,*,#506,.F.);
#726=ORIENTED_EDGE('',*,*,#529,.T.);
#727=ORIENTED_EDGE('',*,*,#522,.F.);
#728=ORIENTED_EDGE('',*,*,#529,.F.);
#729=ORIENTED_EDGE('',*,*,#505,.F.);
#730=ORIENTED_EDGE('',*,*,#530,.T.);
#731=ORIENTED_EDGE('',*,*,#523,.F.);
#732=ORIENTED_EDGE('',*,*,#530,.F.);
#733=ORIENTED_EDGE('',*,*,#504,.F.);
#734=ORIENTED_EDGE('',*,*,#500,.F.);
#735=ORIENTED_EDGE('',*,*,#531,.F.);
#736=ORIENTED_EDGE('',*,*,#528,.T.);
#737=ORIENTED_EDGE('',*,*,#520,.F.);
#738=ORIENTED_EDGE('',*,*,#526,.F.);
#739=ORIENTED_EDGE('',*,*,#532,.T.);
#740=ORIENTED_EDGE('',*,*,#516,.T.);
#741=ORIENTED_EDGE('',*,*,#524,.F.);
#742=ORIENTED_EDGE('',*,*,#531,.T.);
#743=ORIENTED_EDGE('',*,*,#503,.F.);
#744=ORIENTED_EDGE('',*,*,#533,.F.);
#745=ORIENTED_EDGE('',*,*,#534,.F.);
#746=ORIENTED_EDGE('',*,*,#527,.T.);
#747=ORIENTED_EDGE('',*,*,#485,.F.);
#748=ORIENTED_EDGE('',*,*,#535,.F.);
#749=ORIENTED_EDGE('',*,*,#536,.F.);
#750=ORIENTED_EDGE('',*,*,#533,.T.);
#751=ORIENTED_EDGE('',*,*,#484,.F.);
#752=ORIENTED_EDGE('',*,*,#478,.T.);
#753=ORIENTED_EDGE('',*,*,#496,.F.);
#754=ORIENTED_EDGE('',*,*,#537,.F.);
#755=ORIENTED_EDGE('',*,*,#538,.F.);
#756=ORIENTED_EDGE('',*,*,#535,.T.);
#757=ORIENTED_EDGE('',*,*,#483,.F.);
#758=ORIENTED_EDGE('',*,*,#476,.T.);
#759=ORIENTED_EDGE('',*,*,#481,.T.);
#760=ORIENTED_EDGE('',*,*,#539,.F.);
#761=ORIENTED_EDGE('',*,*,#540,.F.);
#762=ORIENTED_EDGE('',*,*,#537,.T.);
#763=ORIENTED_EDGE('',*,*,#495,.F.);
#764=ORIENTED_EDGE('',*,*,#518,.F.);
#765=ORIENTED_EDGE('',*,*,#541,.F.);
#766=ORIENTED_EDGE('',*,*,#539,.T.);
#767=ORIENTED_EDGE('',*,*,#494,.F.);
#768=ORIENTED_EDGE('',*,*,#517,.F.);
#769=ORIENTED_EDGE('',*,*,#532,.F.);
#770=ORIENTED_EDGE('',*,*,#525,.T.);
#771=ORIENTED_EDGE('',*,*,#534,.T.);
#772=ORIENTED_EDGE('',*,*,#536,.T.);
#773=ORIENTED_EDGE('',*,*,#538,.T.);
#774=ORIENTED_EDGE('',*,*,#540,.T.);
#775=ORIENTED_EDGE('',*,*,#541,.T.);
#776=PLANE('',#880);
#777=PLANE('',#881);
#778=PLANE('',#882);
#779=PLANE('',#883);
#780=PLANE('',#884);
#781=PLANE('',#885);
#782=PLANE('',#886);
#783=PLANE('',#887);
#784=PLANE('',#888);
#785=PLANE('',#889);
#786=PLANE('',#890);
#787=PLANE('',#891);
#788=PLANE('',#892);
#789=PLANE('',#893);
#790=PLANE('',#894);
#791=PLANE('',#895);
#792=PLANE('',#896);
#793=PLANE('',#897);
#794=PLANE('',#898);
#795=PLANE('',#899);
#796=PLANE('',#900);
#797=PLANE('',#901);
#798=PLANE('',#902);
#799=PLANE('',#903);
#800=PLANE('',#904);
#801=PLANE('',#905);
#802=PLANE('',#906);
#803=PLANE('',#907);
#804=PLANE('',#908);
#805=PLANE('',#909);
#806=PLANE('',#910);
#807=PLANE('',#911);
#808=PLANE('',#912);
#809=PLANE('',#913);
#810=PLANE('',#914);
#811=PLANE('',#915);
#812=PLANE('',#916);
#813=PLANE('',#917);
#814=PLANE('',#918);
#815=PLANE('',#919);
#816=PLANE('',#920);
#817=PLANE('',#921);
#818=PLANE('',#922);
#819=PLANE('',#923);
#820=PLANE('',#924);
#821=ADVANCED_FACE('',(#19),#776,.T.);
#822=ADVANCED_FACE('',(#20),#777,.T.);
#823=ADVANCED_FACE('',(#21),#778,.T.);
#824=ADVANCED_FACE('',(#22),#779,.T.);
#825=ADVANCED_FACE('',(#23),#780,.T.);
#826=ADVANCED_FACE('',(#24),#781,.T.);
#827=ADVANCED_FACE('',(#25),#782,.T.);
#828=ADVANCED_FACE('',(#26),#783,.T.);
#829=ADVANCED_FACE('',(#27),#784,.T.);
#830=ADVANCED_FACE('',(#28),#785,.T.);
#831=ADVANCED_FACE('',(#29),#786,.T.);
#832=ADVANCED_FACE('',(#30),#787,.T.);
#833=ADVANCED_FACE('',(#31),#788,.T.);
#834=ADVANCED_FACE('',(#32),#789,.T.);
#835=ADVANCED_FACE('',(#33),#790,.T.);
#836=ADVANCED_FACE('',(#34),#791,.T.);
#837=ADVANCED_FACE('',(#35),#792,.T.);
#838=ADVANCED_FACE('',(#36),#793,.T.);
#839=ADVANCED_FACE('',(#37),#794,.T.);
#840=ADVANCED_FACE('',(#38),#795,.T.);
#841=ADVANCED_FACE('',(#39),#796,.F.);
#842=ADVANCED_FACE('',(#40),#797,.F.);
#843=ADVANCED_FACE('',(#41),#798,.F.);
#844=ADVANCED_FACE('',(#42),#799,.F.);
#845=ADVANCED_FACE('',(#43),#800,.F.);
#846=ADVANCED_FACE('',(#44,#15,#16),#801,.T.);
#847=ADVANCED_FACE('',(#45),#802,.T.);
#848=ADVANCED_FACE('',(#46),#803,.F.);
#849=ADVANCED_FACE('',(#47),#804,.T.);
#850=ADVANCED_FACE('',(#48,#17),#805,.T.);
#851=ADVANCED_FACE('',(#49),#806,.T.);
#852=ADVANCED_FACE('',(#50,#18),#807,.T.);
#853=ADVANCED_FACE('',(#51),#808,.T.);
#854=ADVANCED_FACE('',(#52),#809,.F.);
#855=ADVANCED_FACE('',(#53),#810,.T.);
#856=ADVANCED_FACE('',(#54),#811,.F.);
#857=ADVANCED_FACE('',(#55),#812,.F.);
#858=ADVANCED_FACE('',(#56),#813,.F.);
#859=ADVANCED_FACE('',(#57),#814,.T.);
#860=ADVANCED_FACE('',(#58),#815,.T.);
#861=ADVANCED_FACE('',(#59),#816,.T.);
#862=ADVANCED_FACE('',(#60),#817,.T.);
#863=ADVANCED_FACE('',(#61),#818,.T.);
#864=ADVANCED_FACE('',(#62),#819,.T.);
#865=ADVANCED_FACE('',(#63),#820,.T.);
#866=CLOSED_SHELL('',(#821,#822,#823,#824,#825,#826,#827,#828,#829,#830,
#831,#832,#833,#834,#835,#836,#837,#838,#839,#840,#841,#842,#843,#844,#845,
#846,#847,#848,#849,#850,#851,#852,#853,#854,#855,#856,#857,#858,#859,#860,
#861,#862,#863,#864,#865));
#867=DERIVED_UNIT_ELEMENT(#869,1.);
#868=DERIVED_UNIT_ELEMENT(#1380,-3.);
#869=(
MASS_UNIT()
NAMED_UNIT(*)
SI_UNIT(.KILO.,.GRAM.)
);
#870=DERIVED_UNIT((#867,#868));
#871=MEASURE_REPRESENTATION_ITEM('density measure',
POSITIVE_RATIO_MEASURE(7850.),#870);
#872=PROPERTY_DEFINITION_REPRESENTATION(#877,#874);
#873=PROPERTY_DEFINITION_REPRESENTATION(#878,#875);
#874=REPRESENTATION('material name',(#876),#1377);
#875=REPRESENTATION('density',(#871),#1377);
#876=DESCRIPTIVE_REPRESENTATION_ITEM('Steel','Steel');
#877=PROPERTY_DEFINITION('material property','material name',#1387);
#878=PROPERTY_DEFINITION('material property','density of part',#1387);
#879=AXIS2_PLACEMENT_3D('',#1134,#925,#926);
#880=AXIS2_PLACEMENT_3D('',#1135,#927,#928);
#881=AXIS2_PLACEMENT_3D('',#1144,#933,#934);
#882=AXIS2_PLACEMENT_3D('',#1150,#938,#939);
#883=AXIS2_PLACEMENT_3D('',#1154,#942,#943);
#884=AXIS2_PLACEMENT_3D('',#1163,#948,#949);
#885=AXIS2_PLACEMENT_3D('',#1169,#953,#954);
#886=AXIS2_PLACEMENT_3D('',#1173,#957,#958);
#887=AXIS2_PLACEMENT_3D('',#1182,#963,#964);
#888=AXIS2_PLACEMENT_3D('',#1188,#968,#969);
#889=AXIS2_PLACEMENT_3D('',#1192,#972,#973);
#890=AXIS2_PLACEMENT_3D('',#1201,#978,#979);
#891=AXIS2_PLACEMENT_3D('',#1207,#983,#984);
#892=AXIS2_PLACEMENT_3D('',#1211,#987,#988);
#893=AXIS2_PLACEMENT_3D('',#1215,#991,#992);
#894=AXIS2_PLACEMENT_3D('',#1217,#994,#995);
#895=AXIS2_PLACEMENT_3D('',#1221,#998,#999);
#896=AXIS2_PLACEMENT_3D('',#1223,#1001,#1002);
#897=AXIS2_PLACEMENT_3D('',#1227,#1005,#1006);
#898=AXIS2_PLACEMENT_3D('',#1229,#1008,#1009);
#899=AXIS2_PLACEMENT_3D('',#1233,#1012,#1013);
#900=AXIS2_PLACEMENT_3D('',#1235,#1015,#1016);
#901=AXIS2_PLACEMENT_3D('',#1244,#1021,#1022);
#902=AXIS2_PLACEMENT_3D('',#1253,#1027,#1028);
#903=AXIS2_PLACEMENT_3D('',#1256,#1031,#1032);
#904=AXIS2_PLACEMENT_3D('',#1270,#1040,#1041);
#905=AXIS2_PLACEMENT_3D('',#1284,#1049,#1050);
#906=AXIS2_PLACEMENT_3D('',#1290,#1054,#1055);
#907=AXIS2_PLACEMENT_3D('',#1299,#1060,#1061);
#908=AXIS2_PLACEMENT_3D('',#1305,#1065,#1066);
#909=AXIS2_PLACEMENT_3D('',#1309,#1069,#1070);
#910=AXIS2_PLACEMENT_3D('',#1313,#1073,#1074);
#911=AXIS2_PLACEMENT_3D('',#1317,#1077,#1078);
#912=AXIS2_PLACEMENT_3D('',#1321,#1081,#1082);
#913=AXIS2_PLACEMENT_3D('',#1329,#1087,#1088);
#914=AXIS2_PLACEMENT_3D('',#1341,#1095,#1096);
#915=AXIS2_PLACEMENT_3D('',#1347,#1100,#1101);
#916=AXIS2_PLACEMENT_3D('',#1350,#1104,#1105);
#917=AXIS2_PLACEMENT_3D('',#1352,#1107,#1108);
#918=AXIS2_PLACEMENT_3D('',#1354,#1110,#1111);
#919=AXIS2_PLACEMENT_3D('',#1356,#1113,#1114);
#920=AXIS2_PLACEMENT_3D('',#1360,#1117,#1118);
#921=AXIS2_PLACEMENT_3D('',#1364,#1121,#1122);
#922=AXIS2_PLACEMENT_3D('',#1368,#1125,#1126);
#923=AXIS2_PLACEMENT_3D('',#1372,#1129,#1130);
#924=AXIS2_PLACEMENT_3D('',#1374,#1132,#1133);
#925=DIRECTION('axis',(0.,0.,1.));
#926=DIRECTION('refdir',(1.,0.,0.));
#927=DIRECTION('center_axis',(-1.,0.,-1.72710170455221E-13));
#928=DIRECTION('ref_axis',(-1.72710170455221E-13,0.,1.));
#929=DIRECTION('',(1.72710170455221E-13,0.,-1.));
#930=DIRECTION('',(0.,-1.,0.));
#931=DIRECTION('',(-1.72710170455221E-13,0.,1.));
#932=DIRECTION('',(0.,1.,0.));
#933=DIRECTION('center_axis',(0.,1.,0.));
#934=DIRECTION('ref_axis',(0.,0.,1.));
#935=DIRECTION('',(0.707106781186433,0.,0.707106781186662));
#936=DIRECTION('',(0.,0.,-1.));
#937=DIRECTION('',(-0.707106781186692,0.,0.707106781186403));
#938=DIRECTION('center_axis',(-0.707106781186662,0.,0.707106781186433));
#939=DIRECTION('ref_axis',(0.707106781186433,0.,0.707106781186662));
#940=DIRECTION('',(0.707106781186433,0.,0.707106781186662));
#941=DIRECTION('',(0.,1.,0.));
#942=DIRECTION('center_axis',(-1.,0.,-1.72710170455221E-13));
#943=DIRECTION('ref_axis',(-1.72710170455221E-13,0.,1.));
#944=DIRECTION('',(-1.72710170455221E-13,0.,1.));
#945=DIRECTION('',(0.,1.,0.));
#946=DIRECTION('',(1.72710170455221E-13,0.,-1.));
#947=DIRECTION('',(0.,-1.,0.));
#948=DIRECTION('center_axis',(0.,1.,0.));
#949=DIRECTION('ref_axis',(0.,0.,1.));
#950=DIRECTION('',(-0.707106781186433,0.,-0.707106781186662));
#951=DIRECTION('',(0.,0.,-1.));
#952=DIRECTION('',(0.707106781186692,0.,-0.707106781186403));
#953=DIRECTION('center_axis',(-0.707106781186662,0.,0.707106781186433));
#954=DIRECTION('ref_axis',(-0.707106781186433,0.,-0.707106781186662));
#955=DIRECTION('',(-0.707106781186433,0.,-0.707106781186662));
#956=DIRECTION('',(0.,1.,0.));
#957=DIRECTION('center_axis',(1.,0.,0.));
#958=DIRECTION('ref_axis',(0.,0.,-1.));
#959=DIRECTION('',(0.,0.,-1.));
#960=DIRECTION('',(0.,1.,0.));
#961=DIRECTION('',(0.,0.,1.));
#962=DIRECTION('',(0.,-1.,0.));
#963=DIRECTION('center_axis',(0.,1.,0.));
#964=DIRECTION('ref_axis',(0.,0.,1.));
#965=DIRECTION('',(0.707106781186547,0.,0.707106781186548));
#966=DIRECTION('',(0.,0.,1.));
#967=DIRECTION('',(-0.707106781186547,0.,0.707106781186548));
#968=DIRECTION('center_axis',(0.707106781186548,0.,-0.707106781186547));
#969=DIRECTION('ref_axis',(0.707106781186547,0.,0.707106781186548));
#970=DIRECTION('',(0.707106781186547,0.,0.707106781186548));
#971=DIRECTION('',(0.,1.,0.));
#972=DIRECTION('center_axis',(1.,0.,0.));
#973=DIRECTION('ref_axis',(0.,0.,-1.));
#974=DIRECTION('',(0.,0.,1.));
#975=DIRECTION('',(0.,-1.,0.));
#976=DIRECTION('',(0.,0.,-1.));
#977=DIRECTION('',(0.,1.,0.));
#978=DIRECTION('center_axis',(0.,-1.,0.));
#979=DIRECTION('ref_axis',(0.,0.,-1.));
#980=DIRECTION('',(0.707106781186547,0.,-0.707106781186548));
#981=DIRECTION('',(0.,0.,-1.));
#982=DIRECTION('',(-0.707106781186547,0.,-0.707106781186548));
#983=DIRECTION('center_axis',(0.707106781186548,0.,0.707106781186547));
#984=DIRECTION('ref_axis',(0.707106781186547,0.,-0.707106781186548));
#985=DIRECTION('',(0.707106781186547,0.,-0.707106781186548));
#986=DIRECTION('',(0.,-1.,0.));
#987=DIRECTION('center_axis',(0.707106781186548,0.,-0.707106781186547));
#988=DIRECTION('ref_axis',(-0.707106781186547,0.,-0.707106781186548));
#989=DIRECTION('',(0.,1.,0.));
#990=DIRECTION('',(-0.707106781186547,0.,-0.707106781186548));
#991=DIRECTION('center_axis',(0.,1.,0.));
#992=DIRECTION('ref_axis',(0.,0.,1.));
#993=DIRECTION('',(0.,0.,1.));
#994=DIRECTION('center_axis',(-0.707106781186403,0.,-0.707106781186692));
#995=DIRECTION('ref_axis',(-0.707106781186692,0.,0.707106781186403));
#996=DIRECTION('',(0.,-1.,0.));
#997=DIRECTION('',(-0.707106781186692,0.,0.707106781186403));
#998=DIRECTION('center_axis',(0.,-1.,0.));
#999=DIRECTION('ref_axis',(0.,0.,-1.));
#1000=DIRECTION('',(0.,0.,1.));
#1001=DIRECTION('center_axis',(0.707106781186548,0.,0.707106781186547));
#1002=DIRECTION('ref_axis',(-0.707106781186547,0.,0.707106781186548));
#1003=DIRECTION('',(0.,-1.,0.));
#1004=DIRECTION('',(-0.707106781186547,0.,0.707106781186548));
#1005=DIRECTION('center_axis',(0.,-1.,0.));
#1006=DIRECTION('ref_axis',(0.,0.,-1.));
#1007=DIRECTION('',(0.,0.,-1.));
#1008=DIRECTION('center_axis',(-0.707106781186403,0.,-0.707106781186692));
#1009=DIRECTION('ref_axis',(0.707106781186692,0.,-0.707106781186403));
#1010=DIRECTION('',(0.,-1.,0.));
#1011=DIRECTION('',(0.707106781186692,0.,-0.707106781186403));
#1012=DIRECTION('center_axis',(0.,-1.,0.));
#1013=DIRECTION('ref_axis',(0.,0.,-1.));
#1014=DIRECTION('',(0.,0.,1.));
#1015=DIRECTION('center_axis',(0.,-1.,0.));
#1016=DIRECTION('ref_axis',(1.,0.,0.));
#1017=DIRECTION('',(1.,0.,0.));
#1018=DIRECTION('',(0.,0.,1.));
#1019=DIRECTION('',(1.,0.,0.));
#1020=DIRECTION('',(0.,0.,1.));
#1021=DIRECTION('center_axis',(0.,1.,0.));
#1022=DIRECTION('ref_axis',(-1.,0.,0.));
#1023=DIRECTION('',(-1.,0.,0.));
#1024=DIRECTION('',(0.,0.,-1.));
#1025=DIRECTION('',(-1.,0.,0.));
#1026=DIRECTION('',(0.,0.,-1.));
#1027=DIRECTION('center_axis',(0.,0.,1.));
#1028=DIRECTION('ref_axis',(1.,0.,0.));
#1029=DIRECTION('',(0.,1.,0.));
#1030=DIRECTION('',(0.,1.,0.));
#1031=DIRECTION('center_axis',(0.,0.,1.));
#1032=DIRECTION('ref_axis',(1.,0.,0.));
#1033=DIRECTION('',(0.,1.,0.));
#1034=DIRECTION('',(1.,0.,0.));
#1035=DIRECTION('',(-1.86592104979018E-16,-1.,0.));
#1036=DIRECTION('',(-1.,0.,0.));
#1037=DIRECTION('',(0.,-1.,0.));
#1038=DIRECTION('',(1.,2.31296463463574E-16,0.));
#1039=DIRECTION('',(0.,1.,0.));
#1040=DIRECTION('center_axis',(0.,0.,1.));
#1041=DIRECTION('ref_axis',(1.,0.,0.));
#1042=DIRECTION('',(0.,1.,0.));
#1043=DIRECTION('',(-1.,0.,0.));
#1044=DIRECTION('',(0.,-1.,0.));
#1045=DIRECTION('',(1.,0.,0.));
#1046=DIRECTION('',(-1.86592104979018E-16,-1.,0.));
#1047=DIRECTION('',(-1.,0.,0.));
#1048=DIRECTION('',(0.,1.,0.));
#1049=DIRECTION('center_axis',(-1.,0.,0.));
#1050=DIRECTION('ref_axis',(0.,1.,0.));
#1051=DIRECTION('',(0.,0.,-1.));
#1052=DIRECTION('',(0.,1.,0.));
#1053=DIRECTION('',(0.,0.,1.));
#1054=DIRECTION('center_axis',(-0.287347885566342,0.,-0.957826285221152));
#1055=DIRECTION('ref_axis',(-0.957826285221152,0.,0.287347885566342));
#1056=DIRECTION('',(-0.957826285221152,0.,0.287347885566342));
#1057=DIRECTION('',(0.,-1.,0.));
#1058=DIRECTION('',(0.957826285221152,0.,-0.287347885566342));
#1059=DIRECTION('',(0.,1.,0.));
#1060=DIRECTION('center_axis',(0.,0.,1.));
#1061=DIRECTION('ref_axis',(1.,0.,0.));
#1062=DIRECTION('',(1.,0.,0.));
#1063=DIRECTION('',(0.,-1.,0.));
#1064=DIRECTION('',(-1.,0.,0.));
#1065=DIRECTION('center_axis',(0.,-1.,0.));
#1066=DIRECTION('ref_axis',(-1.,0.,0.));
#1067=DIRECTION('',(-1.,0.,0.));
#1068=DIRECTION('',(0.,0.,1.));
#1069=DIRECTION('center_axis',(1.,0.,0.));
#1070=DIRECTION('ref_axis',(0.,-1.,0.));
#1071=DIRECTION('',(0.,-1.,0.));
#1072=DIRECTION('',(0.,0.,-1.));
#1073=DIRECTION('center_axis',(-2.31296463463574E-16,1.,0.));
#1074=DIRECTION('ref_axis',(1.,2.31296463463574E-16,0.));
#1075=DIRECTION('',(1.,2.31296463463574E-16,0.));
#1076=DIRECTION('',(0.,0.,-1.));
#1077=DIRECTION('center_axis',(1.,0.,0.));
#1078=DIRECTION('ref_axis',(0.,-1.,0.));
#1079=DIRECTION('',(0.,-1.,0.));
#1080=DIRECTION('',(0.,0.,1.));
#1081=DIRECTION('center_axis',(0.,-1.,0.));
#1082=DIRECTION('ref_axis',(-1.,0.,0.));
#1083=DIRECTION('',(-1.,0.,0.));
#1084=DIRECTION('',(0.,0.,-1.));
#1085=DIRECTION('',(-1.,0.,0.));
#1086=DIRECTION('',(0.,0.,-1.));
#1087=DIRECTION('center_axis',(0.,0.,1.));
#1088=DIRECTION('ref_axis',(1.,0.,0.));
#1089=DIRECTION('',(1.,0.,0.));
#1090=DIRECTION('',(0.,1.,0.));
#1091=DIRECTION('',(1.,0.,0.));
#1092=DIRECTION('',(0.,1.,0.));
#1093=DIRECTION('',(-1.,0.,0.));
#1094=DIRECTION('',(0.,1.,0.));
#1095=DIRECTION('center_axis',(0.,1.,0.));
#1096=DIRECTION('ref_axis',(1.,0.,0.));
#1097=DIRECTION('',(-1.,0.,0.));
#1098=DIRECTION('',(0.,0.,-1.));
#1099=DIRECTION('',(0.,0.,-1.));
#1100=DIRECTION('center_axis',(0.,-1.,0.));
#1101=DIRECTION('ref_axis',(-1.,0.,0.));
#1102=DIRECTION('',(0.,0.,-1.));
#1103=DIRECTION('',(0.,0.,-1.));
#1104=DIRECTION('center_axis',(1.,0.,0.));
#1105=DIRECTION('ref_axis',(0.,-1.,0.));
#1106=DIRECTION('',(0.,0.,-1.));
#1107=DIRECTION('center_axis',(0.,1.,0.));
#1108=DIRECTION('ref_axis',(1.,0.,0.));
#1109=DIRECTION('',(0.,0.,1.));
#1110=DIRECTION('center_axis',(-1.,0.,0.));
#1111=DIRECTION('ref_axis',(0.,1.,0.));
#1112=DIRECTION('',(0.,1.,0.));
#1113=DIRECTION('center_axis',(-1.,1.86592104979018E-16,0.));
#1114=DIRECTION('ref_axis',(1.86592104979018E-16,1.,0.));
#1115=DIRECTION('',(0.,0.,-1.));
#1116=DIRECTION('',(-1.86592104979018E-16,-1.,0.));
#1117=DIRECTION('center_axis',(0.,-1.,0.));
#1118=DIRECTION('ref_axis',(-1.,0.,0.));
#1119=DIRECTION('',(0.,0.,-1.));
#1120=DIRECTION('',(1.,0.,0.));
#1121=DIRECTION('center_axis',(1.,0.,0.));
#1122=DIRECTION('ref_axis',(0.,-1.,0.));
#1123=DIRECTION('',(0.,0.,-1.));
#1124=DIRECTION('',(0.,1.,0.));
#1125=DIRECTION('center_axis',(0.,1.,0.));
#1126=DIRECTION('ref_axis',(1.,0.,0.));
#1127=DIRECTION('',(0.,0.,-1.));
#1128=DIRECTION('',(-1.,0.,0.));
#1129=DIRECTION('center_axis',(-1.,1.86592104979018E-16,0.));
#1130=DIRECTION('ref_axis',(1.86592104979018E-16,1.,0.));
#1131=DIRECTION('',(-1.86592104979018E-16,-1.,0.));
#1132=DIRECTION('center_axis',(0.,0.,1.));
#1133=DIRECTION('ref_axis',(1.,0.,0.));
#1134=CARTESIAN_POINT('',(0.,0.,0.));
#1135=CARTESIAN_POINT('Origin',(28.4414213562373,30.1,-2.00000000000015));
#1136=CARTESIAN_POINT('',(28.4414213562373,33.1,-1.85857864376285));
#1137=CARTESIAN_POINT('',(28.4414213562373,33.1,-2.14142135623746));
#1138=CARTESIAN_POINT('',(28.4414213562373,33.1,-1.99999999999762));
#1139=CARTESIAN_POINT('',(28.4414213562373,30.1,-2.14142135623746));
#1140=CARTESIAN_POINT('',(28.4414213562373,30.1,-2.14142135623746));
#1141=CARTESIAN_POINT('',(28.4414213562373,30.1,-1.85857864376285));
#1142=CARTESIAN_POINT('',(28.4414213562373,30.1,-1.99999999999762));
#1143=CARTESIAN_POINT('',(28.4414213562373,30.1,-1.85857864376285));
#1144=CARTESIAN_POINT('Origin',(-4.44089209850063E-15,33.1,-2.));
#1145=CARTESIAN_POINT('',(28.9,33.1,-1.39999999999997));
#1146=CARTESIAN_POINT('',(21.2250000000023,33.1,-9.07500000000013));
#1147=CARTESIAN_POINT('',(28.9,33.1,-2.59999999999995));
#1148=CARTESIAN_POINT('',(28.9,33.1,-0.999999999999999));
#1149=CARTESIAN_POINT('',(21.4749999999971,33.1,4.82499999999995));
#1150=CARTESIAN_POINT('Origin',(28.3,30.1,-2.00000000000018));
#1151=CARTESIAN_POINT('',(28.9,30.1,-1.39999999999997));
#1152=CARTESIAN_POINT('',(21.2250000000023,30.1,-9.07500000000013));
#1153=CARTESIAN_POINT('',(28.9,21.05,-1.39999999999997));
#1154=CARTESIAN_POINT('Origin',(28.4414213562373,16.1,-2.00000000000015));
#1155=CARTESIAN_POINT('',(28.4414213562373,13.1,-2.14142135623746));
#1156=CARTESIAN_POINT('',(28.4414213562373,13.1,-1.85857864376285));
#1157=CARTESIAN_POINT('',(28.4414213562373,13.1,-1.99999999999762));
#1158=CARTESIAN_POINT('',(28.4414213562373,16.1,-1.85857864376285));
#1159=CARTESIAN_POINT('',(28.4414213562373,16.1,-1.85857864376285));
#1160=CARTESIAN_POINT('',(28.4414213562373,16.1,-2.14142135623746));
#1161=CARTESIAN_POINT('',(28.4414213562373,16.1,-1.99999999999762));
#1162=CARTESIAN_POINT('',(28.4414213562373,16.1,-2.14142135623746));
#1163=CARTESIAN_POINT('Origin',(-2.22044604925031E-15,16.1,-2.));
#1164=CARTESIAN_POINT('',(28.9,16.1,-1.39999999999997));
#1165=CARTESIAN_POINT('',(21.2250000000023,16.1,-9.07500000000013));
#1166=CARTESIAN_POINT('',(28.9,16.1,-2.59999999999995));
#1167=CARTESIAN_POINT('',(28.9,16.1,-0.999999999999999));
#1168=CARTESIAN_POINT('',(21.4749999999971,16.1,4.82499999999995));
#1169=CARTESIAN_POINT('Origin',(28.8,16.1,-1.5));
#1170=CARTESIAN_POINT('',(28.9,13.1,-1.39999999999997));
#1171=CARTESIAN_POINT('',(21.2250000000023,13.1,-9.07500000000013));
#1172=CARTESIAN_POINT('',(28.9,14.05,-1.39999999999997));
#1173=CARTESIAN_POINT('Origin',(-28.4414213562373,16.1,-2.));
#1174=CARTESIAN_POINT('',(-28.4414213562373,13.1,-1.85857864376269));
#1175=CARTESIAN_POINT('',(-28.4414213562373,13.1,-2.14142135623731));
#1176=CARTESIAN_POINT('',(-28.4414213562373,13.1,-2.));
#1177=CARTESIAN_POINT('',(-28.4414213562373,16.1,-2.14142135623731));
#1178=CARTESIAN_POINT('',(-28.4414213562373,16.1,-2.14142135623731));
#1179=CARTESIAN_POINT('',(-28.4414213562373,16.1,-1.85857864376269));
#1180=CARTESIAN_POINT('',(-28.4414213562373,16.1,-2.));
#1181=CARTESIAN_POINT('',(-28.4414213562373,16.1,-1.85857864376269));
#1182=CARTESIAN_POINT('Origin',(-2.22044604925031E-15,16.1,-2.));
#1183=CARTESIAN_POINT('',(-28.9,16.1,-2.6));
#1184=CARTESIAN_POINT('',(-21.225,16.1,5.075));
#1185=CARTESIAN_POINT('',(-28.9,16.1,-1.4));
#1186=CARTESIAN_POINT('',(-28.9,16.1,-0.999999999999999));
#1187=CARTESIAN_POINT('',(-21.475,16.1,-8.825));
#1188=CARTESIAN_POINT('Origin',(-28.8,16.1,-2.5));
#1189=CARTESIAN_POINT('',(-28.9,13.1,-2.6));
#1190=CARTESIAN_POINT('',(-21.225,13.1,5.075));
#1191=CARTESIAN_POINT('',(-28.9,16.6,-2.6));
#1192=CARTESIAN_POINT('Origin',(-28.4414213562373,30.1,-2.));
#1193=CARTESIAN_POINT('',(-28.4414213562373,33.1,-2.14142135623731));
#1194=CARTESIAN_POINT('',(-28.4414213562373,33.1,-1.85857864376269));
#1195=CARTESIAN_POINT('',(-28.4414213562373,33.1,-2.));
#1196=CARTESIAN_POINT('',(-28.4414213562373,30.1,-1.85857864376269));
#1197=CARTESIAN_POINT('',(-28.4414213562373,30.1,-1.85857864376269));
#1198=CARTESIAN_POINT('',(-28.4414213562373,30.1,-2.14142135623731));
#1199=CARTESIAN_POINT('',(-28.4414213562373,30.1,-2.));
#1200=CARTESIAN_POINT('',(-28.4414213562373,30.1,-2.14142135623731));
#1201=CARTESIAN_POINT('Origin',(-2.22044604925031E-15,30.1,-2.));
#1202=CARTESIAN_POINT('',(-28.9,30.1,-1.4));
#1203=CARTESIAN_POINT('',(-21.475,30.1,-8.825));
#1204=CARTESIAN_POINT('',(-28.9,30.1,-2.6));
#1205=CARTESIAN_POINT('',(-28.9,30.1,-0.999999999999999));
#1206=CARTESIAN_POINT('',(-21.225,30.1,5.075));
#1207=CARTESIAN_POINT('Origin',(-28.8,30.1,-1.5));
#1208=CARTESIAN_POINT('',(-28.9,33.1,-1.4));
#1209=CARTESIAN_POINT('',(-21.475,33.1,-8.825));
#1210=CARTESIAN_POINT('',(-28.9,32.15,-1.4));
#1211=CARTESIAN_POINT('Origin',(-28.3,30.1,-2.));
#1212=CARTESIAN_POINT('',(-28.9,33.1,-2.6));
#1213=CARTESIAN_POINT('',(-28.9,32.15,-2.6));
#1214=CARTESIAN_POINT('',(-21.225,33.1,5.075));
#1215=CARTESIAN_POINT('Origin',(0.,33.1,-2.));
#1216=CARTESIAN_POINT('',(-28.9,33.1,-0.999999999999999));
#1217=CARTESIAN_POINT('Origin',(28.8,30.1,-2.49999999999999));
#1218=CARTESIAN_POINT('',(28.9,30.1,-2.59999999999995));
#1219=CARTESIAN_POINT('',(28.9,21.05,-2.59999999999995));
#1220=CARTESIAN_POINT('',(21.4749999999971,30.1,4.82499999999995));
#1221=CARTESIAN_POINT('Origin',(-2.22044604925031E-15,30.1,-2.));
#1222=CARTESIAN_POINT('',(28.9,30.1,-0.999999999999999));
#1223=CARTESIAN_POINT('Origin',(-28.3,16.1,-2.));
#1224=CARTESIAN_POINT('',(-28.9,13.1,-1.4));
#1225=CARTESIAN_POINT('',(-28.9,16.6,-1.4));
#1226=CARTESIAN_POINT('',(-21.475,13.1,-8.825));
#1227=CARTESIAN_POINT('Origin',(0.,13.1,-2.));
#1228=CARTESIAN_POINT('',(-28.9,13.1,-0.999999999999999));
#1229=CARTESIAN_POINT('Origin',(28.3,16.1,-2.00000000000018));
#1230=CARTESIAN_POINT('',(28.9,13.1,-2.59999999999995));
#1231=CARTESIAN_POINT('',(28.9,14.05,-2.59999999999995));
#1232=CARTESIAN_POINT('',(21.4749999999971,13.1,4.82499999999995));
#1233=CARTESIAN_POINT('Origin',(0.,13.1,-2.));
#1234=CARTESIAN_POINT('',(28.9,13.1,-0.999999999999999));
#1235=CARTESIAN_POINT('Origin',(28.8,18.1,-3.1));
#1236=CARTESIAN_POINT('',(28.9,18.1,-3.1));
#1237=CARTESIAN_POINT('',(30.,18.1,-3.1));
#1238=CARTESIAN_POINT('',(14.4,18.1,-3.1));
#1239=CARTESIAN_POINT('',(28.9,18.1,-2.7));
#1240=CARTESIAN_POINT('',(28.9,18.1,-1.55));
#1241=CARTESIAN_POINT('',(30.,18.1,-2.7));
#1242=CARTESIAN_POINT('',(29.7,18.1,-2.7));
#1243=CARTESIAN_POINT('',(30.,18.1,-1.55));
#1244=CARTESIAN_POINT('Origin',(30.,28.1,-3.1));
#1245=CARTESIAN_POINT('',(30.,28.1,-3.1));
#1246=CARTESIAN_POINT('',(28.9,28.1,-3.1));
#1247=CARTESIAN_POINT('',(15.,28.1,-3.1));
#1248=CARTESIAN_POINT('',(30.,28.1,-2.7));
#1249=CARTESIAN_POINT('',(30.,28.1,-1.55));
#1250=CARTESIAN_POINT('',(28.9,28.1,-2.7));
#1251=CARTESIAN_POINT('',(29.1,28.1,-2.7));
#1252=CARTESIAN_POINT('',(28.9,28.1,-1.55));
#1253=CARTESIAN_POINT('Origin',(29.4,23.1,-2.7));
#1254=CARTESIAN_POINT('',(30.,29.05,-2.7));
#1255=CARTESIAN_POINT('',(28.9,17.55,-2.7));
#1256=CARTESIAN_POINT('Origin',(0.,23.1,-3.1));
#1257=CARTESIAN_POINT('',(30.,11.2,-3.1));
#1258=CARTESIAN_POINT('',(30.,29.05,-3.1));
#1259=CARTESIAN_POINT('',(-30.,11.2,-3.1));
#1260=CARTESIAN_POINT('',(15.,11.2,-3.1));
#1261=CARTESIAN_POINT('',(-30.,17.1,-3.1));
#1262=CARTESIAN_POINT('',(-30.,17.15,-3.1));
#1263=CARTESIAN_POINT('',(-28.9,17.1,-3.1));
#1264=CARTESIAN_POINT('',(-15.,17.1,-3.1));
#1265=CARTESIAN_POINT('',(-28.9,11.9,-3.1));
#1266=CARTESIAN_POINT('',(-28.9,20.1,-3.1));
#1267=CARTESIAN_POINT('',(28.9,11.9,-3.1));
#1268=CARTESIAN_POINT('',(-14.4,11.9,-3.1));
#1269=CARTESIAN_POINT('',(28.9,17.55,-3.1));
#1270=CARTESIAN_POINT('Origin',(0.,23.1,-3.1));
#1271=CARTESIAN_POINT('',(28.9,34.3,-3.1));
#1272=CARTESIAN_POINT('',(28.9,17.55,-3.1));
#1273=CARTESIAN_POINT('',(-28.9,34.3,-3.1));
#1274=CARTESIAN_POINT('',(14.4,34.3,-3.1));
#1275=CARTESIAN_POINT('',(-28.9,29.1,-3.1));
#1276=CARTESIAN_POINT('',(-28.9,28.65,-3.1));
#1277=CARTESIAN_POINT('',(-30.,29.1,-3.1));
#1278=CARTESIAN_POINT('',(-14.4,29.1,-3.1));
#1279=CARTESIAN_POINT('',(-30.,35.,-3.1));
#1280=CARTESIAN_POINT('',(-30.,26.1,-3.1));
#1281=CARTESIAN_POINT('',(30.,35.,-3.1));
#1282=CARTESIAN_POINT('',(-15.,35.,-3.1));
#1283=CARTESIAN_POINT('',(30.,29.05,-3.1));
#1284=CARTESIAN_POINT('Origin',(28.9,12.,0.));
#1285=CARTESIAN_POINT('',(28.9,11.9,-0.5));
#1286=CARTESIAN_POINT('',(28.9,11.9,0.));
#1287=CARTESIAN_POINT('',(28.9,34.3,-0.5));
#1288=CARTESIAN_POINT('',(28.9,17.55,-0.5));
#1289=CARTESIAN_POINT('',(28.9,34.3,0.));
#1290=CARTESIAN_POINT('Origin',(-27.4,20.1,-0.22));
#1291=CARTESIAN_POINT('',(-27.6,27.1,-0.16));
#1292=CARTESIAN_POINT('',(-27.2,27.1,-0.28));
#1293=CARTESIAN_POINT('',(-27.4834862385321,27.1,-0.194954128440367));
#1294=CARTESIAN_POINT('',(-27.2,19.1,-0.28));
#1295=CARTESIAN_POINT('',(-27.2,20.1,-0.28));
#1296=CARTESIAN_POINT('',(-27.6,19.1,-0.16));
#1297=CARTESIAN_POINT('',(-24.5477064220183,19.1,-1.07568807339449));
#1298=CARTESIAN_POINT('',(-27.6,20.1,-0.16));
#1299=CARTESIAN_POINT('Origin',(-25.6,23.1,-0.28));
#1300=CARTESIAN_POINT('',(-21.2,27.1,-0.28));
#1301=CARTESIAN_POINT('',(-27.6,27.1,-0.28));
#1302=CARTESIAN_POINT('',(-21.2,19.1,-0.28));
#1303=CARTESIAN_POINT('',(-21.2,27.1,-0.28));
#1304=CARTESIAN_POINT('',(-21.2,19.1,-0.28));
#1305=CARTESIAN_POINT('Origin',(28.8,34.3,0.));
#1306=CARTESIAN_POINT('',(-28.9,34.3,-0.5));
#1307=CARTESIAN_POINT('',(14.4,34.3,-0.5));
#1308=CARTESIAN_POINT('',(-28.9,34.3,0.));
#1309=CARTESIAN_POINT('Origin',(-28.9,34.2,0.));
#1310=CARTESIAN_POINT('',(-28.9,29.1,-0.5));
#1311=CARTESIAN_POINT('',(-28.9,28.65,-0.5));
#1312=CARTESIAN_POINT('',(-28.9,29.1,0.));
#1313=CARTESIAN_POINT('Origin',(-28.8,11.9,0.));
#1314=CARTESIAN_POINT('',(-28.9,11.9,-0.5));
#1315=CARTESIAN_POINT('',(-14.4,11.9,-0.5));
#1316=CARTESIAN_POINT('',(-28.9,11.9,0.));
#1317=CARTESIAN_POINT('Origin',(-28.9,17.1,0.));
#1318=CARTESIAN_POINT('',(-28.9,17.1,-0.5));
#1319=CARTESIAN_POINT('',(-28.9,20.1,-0.5));
#1320=CARTESIAN_POINT('',(-28.9,17.1,0.));
#1321=CARTESIAN_POINT('Origin',(-27.6,29.1,0.));
#1322=CARTESIAN_POINT('',(-27.6,29.1,-0.5));
#1323=CARTESIAN_POINT('',(-13.8,29.1,-0.5));
#1324=CARTESIAN_POINT('',(-27.6,29.1,0.));
#1325=CARTESIAN_POINT('',(-27.6,29.1,0.));
#1326=CARTESIAN_POINT('',(-30.,29.1,0.));
#1327=CARTESIAN_POINT('',(-26.,29.1,0.));
#1328=CARTESIAN_POINT('',(-30.,29.1,0.));
#1329=CARTESIAN_POINT('Origin',(0.,23.1,-0.5));
#1330=CARTESIAN_POINT('',(-27.6,17.1,-0.5));
#1331=CARTESIAN_POINT('',(-15.,17.1,-0.5));
#1332=CARTESIAN_POINT('',(-27.6,19.1,-0.5));
#1333=CARTESIAN_POINT('',(-27.6,20.1,-0.5));
#1334=CARTESIAN_POINT('',(-21.2,19.1,-0.5));
#1335=CARTESIAN_POINT('',(-10.6,19.1,-0.5));
#1336=CARTESIAN_POINT('',(-21.2,27.1,-0.5));
#1337=CARTESIAN_POINT('',(-21.2,25.1,-0.5));
#1338=CARTESIAN_POINT('',(-27.6,27.1,-0.5));
#1339=CARTESIAN_POINT('',(-13.8,27.1,-0.5));
#1340=CARTESIAN_POINT('',(-27.6,20.1,-0.5));
#1341=CARTESIAN_POINT('Origin',(-30.,17.1,0.));
#1342=CARTESIAN_POINT('',(-27.6,17.1,0.));
#1343=CARTESIAN_POINT('',(-30.,17.1,0.));
#1344=CARTESIAN_POINT('',(-26.,17.1,0.));
#1345=CARTESIAN_POINT('',(-27.6,17.1,0.));
#1346=CARTESIAN_POINT('',(-30.,17.1,0.));
#1347=CARTESIAN_POINT('Origin',(-21.2,19.1,-0.28));
#1348=CARTESIAN_POINT('',(-27.6,19.1,-0.14));
#1349=CARTESIAN_POINT('',(-21.2,19.1,-0.28));
#1350=CARTESIAN_POINT('Origin',(-21.2,27.1,-0.28));
#1351=CARTESIAN_POINT('',(-21.2,27.1,-0.28));
#1352=CARTESIAN_POINT('Origin',(-27.6,27.1,-0.28));
#1353=CARTESIAN_POINT('',(-27.6,27.1,-0.14));
#1354=CARTESIAN_POINT('Origin',(-27.6,17.1,0.));
#1355=CARTESIAN_POINT('',(-27.6,17.1,0.));
#1356=CARTESIAN_POINT('Origin',(-30.,11.2,0.));
#1357=CARTESIAN_POINT('',(-30.,11.2,0.));
#1358=CARTESIAN_POINT('',(-30.,11.2,0.));
#1359=CARTESIAN_POINT('',(-30.,35.,0.));
#1360=CARTESIAN_POINT('Origin',(30.,11.2,0.));
#1361=CARTESIAN_POINT('',(30.,11.2,0.));
#1362=CARTESIAN_POINT('',(30.,11.2,0.));
#1363=CARTESIAN_POINT('',(-30.,11.2,0.));
#1364=CARTESIAN_POINT('Origin',(30.,35.,0.));
#1365=CARTESIAN_POINT('',(30.,35.,0.));
#1366=CARTESIAN_POINT('',(30.,35.,0.));
#1367=CARTESIAN_POINT('',(30.,11.2,0.));
#1368=CARTESIAN_POINT('Origin',(-30.,35.,0.));
#1369=CARTESIAN_POINT('',(-30.,35.,0.));
#1370=CARTESIAN_POINT('',(-30.,35.,0.));
#1371=CARTESIAN_POINT('',(30.,35.,0.));
#1372=CARTESIAN_POINT('Origin',(-30.,29.1,0.));
#1373=CARTESIAN_POINT('',(-30.,35.,0.));
#1374=CARTESIAN_POINT('Origin',(0.,23.1,0.));
#1375=UNCERTAINTY_MEASURE_WITH_UNIT(LENGTH_MEASURE(0.01),#1379,
'DISTANCE_ACCURACY_VALUE',
'Maximum model space distance between geometric entities at asserted c
onnectivities');
#1376=UNCERTAINTY_MEASURE_WITH_UNIT(LENGTH_MEASURE(0.01),#1379,
'DISTANCE_ACCURACY_VALUE',
'Maximum model space distance between geometric entities at asserted c
onnectivities');
#1377=(
GEOMETRIC_REPRESENTATION_CONTEXT(3)
GLOBAL_UNCERTAINTY_ASSIGNED_CONTEXT((#1375))
GLOBAL_UNIT_ASSIGNED_CONTEXT((#1379,#1381,#1382))
REPRESENTATION_CONTEXT('','3D')
);
#1378=(
GEOMETRIC_REPRESENTATION_CONTEXT(3)
GLOBAL_UNCERTAINTY_ASSIGNED_CONTEXT((#1376))
GLOBAL_UNIT_ASSIGNED_CONTEXT((#1379,#1381,#1382))
REPRESENTATION_CONTEXT('','3D')
);
#1379=(
LENGTH_UNIT()
NAMED_UNIT(*)
SI_UNIT(.MILLI.,.METRE.)
);
#1380=(
LENGTH_UNIT()
NAMED_UNIT(*)
SI_UNIT($,.METRE.)
);
#1381=(
NAMED_UNIT(*)
PLANE_ANGLE_UNIT()
SI_UNIT($,.RADIAN.)
);
#1382=(
NAMED_UNIT(*)
SI_UNIT($,.STERADIAN.)
SOLID_ANGLE_UNIT()
);
#1383=SHAPE_DEFINITION_REPRESENTATION(#1384,#1385);
#1384=PRODUCT_DEFINITION_SHAPE('',$,#1387);
#1385=SHAPE_REPRESENTATION('',(#879),#1377);
#1386=PRODUCT_DEFINITION_CONTEXT('part definition',#1391,'design');
#1387=PRODUCT_DEFINITION('Cap','Cap',#1388,#1386);
#1388=PRODUCT_DEFINITION_FORMATION('',$,#1393);
#1389=PRODUCT_RELATED_PRODUCT_CATEGORY('Cap','Cap',(#1393));
#1390=APPLICATION_PROTOCOL_DEFINITION('international standard',
'automotive_design',2009,#1391);
#1391=APPLICATION_CONTEXT(
'Core Data for Automotive Mechanical Design Process');
#1392=PRODUCT_CONTEXT('part definition',#1391,'mechanical');
#1393=PRODUCT('Cap','Cap',$,(#1392));
#1394=PRESENTATION_STYLE_ASSIGNMENT((#1395));
#1395=SURFACE_STYLE_USAGE(.BOTH.,#1396);
#1396=SURFACE_SIDE_STYLE('',(#1397));
#1397=SURFACE_STYLE_FILL_AREA(#1398);
#1398=FILL_AREA_STYLE('Steel - Satin',(#1399));
#1399=FILL_AREA_STYLE_COLOUR('Steel - Satin',#1400);
#1400=COLOUR_RGB('Steel - Satin',0.627450980392157,0.627450980392157,0.627450980392157);
ENDSEC;
END-ISO-10303-21;
